<svg xmlns="http://www.w3.org/2000/svg" width="115" height="139.312" viewBox="0 0 115 139.312">
  <defs>
    <style>
      .cls-1 {
        fill: #f39;
        fill-rule: evenodd;
      }
    </style>
  </defs>
  <path id="eg-logo" class="cls-1" d="M999.338,143.27c-9.523,0-11.94-6.413-11.94-14.636V42.344h14.922v86.289c0,2.508,1.14,3.9,3.7,3.9h1.99V143.27h-8.672Zm-55.01-63.007a9.2,9.2,0,1,1,9.239-9.2,9.374,9.374,0,0,1-9.239,9.2m33.12-1.254c-5.828,0-6.965,2.368-6.965,4.6V143.27H955.557v-79.6h12.226l0.994,3.625a14.234,14.234,0,0,1,10.8-4.6,13.341,13.341,0,0,1,5.259,1.394V80.542a24.834,24.834,0,0,0-7.393-1.533m-40.656,3.063h14.927v61.2H936.792v-61.2Zm-25.585,83.081c-5.4,0-12.225-1.256-16.915-4.043l2.559-10.873c3.411,1.814,6.824,3.347,11.8,3.347,7.392,0,9.523-5.015,9.523-12.545v-2.927a12.482,12.482,0,0,1-8.812,3.344c-12.369,0-16.349-12.408-16.349-39.728,0-24.534,4.407-39.028,16.349-39.028a11.2,11.2,0,0,1,8.812,3.763V63.674h14.784v77.365c0,14.5-6.541,24.115-21.75,24.115m6.964-87.959a8.124,8.124,0,0,0-3.553-1.113c-4.405,0-6.254,2.091-6.254,25.924,0,24.258.569,28.3,5.686,28.3a5.361,5.361,0,0,0,4.121-1.812v-51.3ZM970.2,60.141V59.581h2.275V26.405H970.2V25.848h14.5v8.644h-0.569V34.351c0-2.232-.426-4.739-2.131-6.411a4.665,4.665,0,0,0-3.554-1.535h-1.7V42.434h0.568A3.6,3.6,0,0,0,979.3,41.6c1.278-.976,1.422-4.182,1.422-5.574h0.566v13.1H980.72v-0.14c0-1.673-.144-4.319-1.422-5.156a2.841,2.841,0,0,0-1.991-.838h-0.568V59.581H978.3c4.69,0,5.828-4.879,5.828-8.645h0.71v9.2H970.2Zm-22.46,0V59.581H950.3V26.405h-2.559V25.848h9.523v0.558H954.7V59.581h1.565c4.691,0,5.827-4.741,5.969-8.5V50.936h0.569v9.2H947.739Zm-21.89,0V59.581h2.7V26.405h-2.7V25.848h9.667v0.558h-2.7V59.581h1.564c4.832,0,5.97-4.879,5.97-8.645h0.71v9.2h-15.21Zm-24.024,0V59.581H904.1V26.405h-2.274V25.848h14.642v8.644H915.9V34.351c0-3.488-1.421-7.946-5.686-7.946h-1.705V42.434h0.427a3.594,3.594,0,0,0,1.99-.834c1.28-.976,1.564-4.182,1.564-5.574h0.569v13.1h-0.569v-0.14c0-1.673-.284-4.319-1.564-5.156a2.835,2.835,0,0,0-1.99-.838h-0.427V59.581h1.421c4.833,0,5.828-4.879,5.97-8.645h0.57v9.2H901.825Z" transform="translate(-893 -25.844)"/>
</svg>
